<?xml version="1.0" encoding="UTF-8"?>
<svg version="1.1" xmlns="http://www.w3.org/2000/svg" width="512" height="512">
<path d="M0 0 C3.62441474 3.19293679 5.44932259 5.76895139 5.78979492 10.69848633 C5.7973366 17.10485106 5.2627419 23.14785573 4.0625 29.4375 C3.88468994 30.37634033 3.70687988 31.31518066 3.52368164 32.2824707 C-4.52345119 72.967246 -21.75830833 111.39867489 -48.375 143.3125 C-48.83841797 143.87743164 -49.30183594 144.44236328 -49.77929688 145.02441406 C-60.74005121 158.36826794 -72.68964268 170.74282922 -86.375 181.3125 C-87.80972656 182.47265625 -87.80972656 182.47265625 -89.2734375 183.65625 C-118.83600427 207.18715957 -153.6360429 222.98152275 -190.375 231.3125 C-191.45080322 231.5612085 -191.45080322 231.5612085 -192.54833984 231.81494141 C-204.55851994 234.55214524 -217.03201854 236.52143068 -229.375 236.3125 C-229.36452637 237.07280518 -229.35405273 237.83311035 -229.34326172 238.61645508 C-229.30124179 242.11926866 -229.2755292 245.62202892 -229.25 249.125 C-229.23324219 250.32060547 -229.21648437 251.51621094 -229.19921875 252.74804688 C-229.13516743 264.50146346 -229.64290018 276.13364756 -238.08203125 285.1328125 C-243.28107984 289.82215044 -247.86947129 291.61951628 -254.9375 291.8125 C-256.61005859 291.88984375 -256.61005859 291.88984375 -258.31640625 291.96875 C-268.89051304 291.04763282 -277.32216233 283.23617205 -284.37866211 276.03759766 C-285.7591272 274.66567513 -285.7591272 274.66567513 -287.16748047 273.26603699 C-289.66225158 270.78564547 -292.13812776 268.28718276 -294.6103332 265.78432512 C-297.21514059 263.15290888 -299.83601524 260.53757898 -302.45472717 257.92001343 C-306.8447879 253.52715528 -311.2231473 249.12290939 -315.59399414 244.7109375 C-320.63282198 239.62487285 -325.68722009 234.55472056 -330.75081629 229.49332201 C-336.16715759 224.07901323 -341.57199381 218.65332946 -346.97353673 213.22426176 C-348.52063757 211.67079627 -350.0698327 210.11944632 -351.61952019 208.56856155 C-354.51446034 205.67002401 -357.39638679 202.75886919 -360.27709961 199.84619141 C-361.55433647 198.57099388 -361.55433647 198.57099388 -362.8573761 197.27003479 C-373.16444556 186.79579272 -378.70295542 175.73694982 -378.875 160.8125 C-378.54535861 134.72415527 -358.19245258 118.96424058 -341.12890625 101.86328125 C-340.25600386 100.98755148 -339.38310146 100.11182171 -338.48374748 99.20955467 C-334.34364123 95.05606303 -330.20181106 90.90430637 -326.05695206 86.75555736 C-321.30676167 82.00088082 -316.56320061 77.23971834 -311.82524544 72.47285014 C-307.69007478 68.31333945 -303.54656227 64.16221796 -299.40006828 60.01399803 C-297.65021097 58.26112875 -295.90283729 56.50577624 -294.15808296 54.74782753 C-291.71346627 52.2860353 -289.25942357 49.83401544 -286.80297852 47.3840332 C-286.09566086 46.66750076 -285.3883432 45.95096832 -284.65959167 45.21272278 C-275.90848129 36.53304318 -267.2811497 30.42576871 -254.875 28.875 C-246.28113895 29.94923263 -240.47810029 33.15277101 -235 39.87890625 C-229.93762292 47.46030269 -229.23768631 56.41691925 -229.27734375 65.33984375 C-229.28056641 66.62568359 -229.28378906 67.91152344 -229.28710938 69.23632812 C-229.29546198 70.57421945 -229.30392689 71.91211007 -229.3125 73.25 C-229.31752341 74.61523274 -229.32208483 75.98046726 -229.32617188 77.34570312 C-229.33791149 80.66801457 -229.35433321 83.99023408 -229.375 87.3125 C-217.34433347 88.85721767 -205.50480146 89.72058476 -193.375 89.6875 C-192.17877014 89.68618576 -192.17877014 89.68618576 -190.95837402 89.68484497 C-160.76042152 89.57637855 -131.75082684 83.14219804 -104.375 70.3125 C-103.68116211 69.99168457 -102.98732422 69.67086914 -102.27246094 69.34033203 C-83.18816999 60.44005518 -66.21598916 48.89389861 -50.8046875 34.5546875 C-48.78937364 32.69489625 -46.74202645 30.92816619 -44.625 29.1875 C-40.78322303 25.91790258 -37.60245514 22.17771574 -34.375 18.3125 C-33.55386719 17.3328125 -32.73273438 16.353125 -31.88671875 15.34375 C-27.43765279 10.04531053 -27.43765279 10.04531053 -23.07226562 4.6784668 C-16.64680719 -3.29658998 -8.93387602 -4.46693801 0 0 Z " fill="#FFFFFF" transform="translate(442.375,220.6875)"/>
<path d="M0 0 C10.22679221 4.68390325 18.20636067 14.0967974 26.07104492 21.91723633 C26.90006821 22.73808212 27.72909149 23.55892792 28.58323669 24.40464783 C31.29023859 27.08709763 33.99331802 29.77344428 36.6953125 32.4609375 C38.09165137 33.84929086 38.09165137 33.84929086 39.51619911 35.26569176 C43.42963283 39.15757455 47.34165692 43.05086524 51.24999523 46.94786549 C56.80586321 52.4874926 62.37007172 58.01842958 67.94619769 63.5376671 C71.89418582 67.44676936 75.83236803 71.36558466 79.76359349 75.29154319 C82.09995971 77.62428624 84.44142274 79.95147372 86.79103661 82.27088356 C101.09587823 96.40214249 112.89573059 108.49446869 113.52734375 129.69140625 C113.05975831 146.01793133 106.31683848 157.81467085 94.89331055 169.08154297 C93.98030182 170.001707 93.06729309 170.92187103 92.12661743 171.86991882 C89.64820117 174.3666728 87.15456386 176.8476621 84.65710044 179.32534552 C82.0309475 181.93497088 79.4175602 184.55733125 76.80220032 187.17776489 C72.41212822 191.57234111 68.01203551 195.95668262 63.60571289 200.33496094 C58.52751433 205.38108538 53.46557304 210.44308186 48.41201466 215.51387393 C43.5272325 220.41457221 38.63115457 225.30383485 33.72989845 230.18805313 C31.6542843 232.2568344 29.58262117 234.32945331 27.51413536 236.40536118 C24.62079568 239.30785244 21.71110614 242.19340851 18.79956055 245.07763672 C17.95302414 245.93069901 17.10648773 246.78376129 16.23429871 247.66267395 C8.58739885 255.18840679 0.71096987 260.49153346 -10.22265625 261.50390625 C-16.46621787 260.96566818 -22.69474264 259.31439693 -27.43359375 254.97265625 C-34.01338229 246.68430384 -35.98667885 237.94705562 -35.9453125 227.60546875 C-35.94319008 226.55279312 -35.94319008 226.55279312 -35.94102478 225.47885132 C-35.93546915 223.25799121 -35.92292517 221.03723541 -35.91015625 218.81640625 C-35.90513551 217.3020848 -35.90057361 215.78776175 -35.89648438 214.2734375 C-35.88551432 210.57939373 -35.86828074 206.88541019 -35.84765625 203.19140625 C-47.99080424 201.61894464 -59.91726653 200.82067211 -72.16015625 200.87890625 C-72.96437012 200.88072906 -73.76858398 200.88255188 -74.59716797 200.88442993 C-87.23276296 200.93244845 -99.44945339 201.58827046 -111.84765625 204.19140625 C-112.68538574 204.35769531 -113.52311523 204.52398437 -114.38623047 204.6953125 C-163.59671505 214.62382424 -208.68033438 242.29885336 -239.16796875 282.23046875 C-246.66902019 291.86741281 -246.66902019 291.86741281 -252.84765625 293.19140625 C-258.87659658 293.39272412 -263.18088872 292.1914927 -267.84765625 288.19140625 C-272.60113483 281.55018259 -271.57601754 274.15020167 -270.44042969 266.41894531 C-268.01106973 252.03470033 -264.47959296 238.01689655 -259.84765625 224.19140625 C-259.63061035 223.52979492 -259.41356445 222.86818359 -259.18994141 222.18652344 C-250.35733489 195.64118026 -236.24979391 170.99428231 -218.84765625 149.19140625 C-218.39374512 148.62035156 -217.93983398 148.04929688 -217.47216797 147.4609375 C-204.98649073 131.92964201 -190.6513799 117.06826611 -174.47900391 105.37402344 C-172.81826708 104.17010108 -171.18230859 102.93723475 -169.546875 101.69921875 C-131.3340589 73.14928596 -83.47961645 55.93992124 -35.84765625 54.19140625 C-35.86860352 53.3506958 -35.88955078 52.50998535 -35.91113281 51.64379883 C-35.98020002 48.45862048 -36.02988199 45.27382948 -36.06738281 42.08813477 C-36.08722892 40.72179435 -36.11431539 39.35553566 -36.14941406 37.98950195 C-36.47429457 24.99905927 -35.16628047 13.78426219 -26.04296875 3.99609375 C-18.57366693 -2.14415081 -9.13941295 -2.59514195 0 0 Z " fill="#FFFFFF" transform="translate(270.84765625,0.80859375)"/>
</svg>
