<?xml version="1.0" encoding="UTF-8"?>
<svg version="1.1" xmlns="http://www.w3.org/2000/svg" width="500" height="500">
<path d="M0 0 C3.03212355 -0.00219489 6.06388734 -0.02043134 9.09594727 -0.03930664 C11.0562325 -0.0422402 13.01651944 -0.04422524 14.97680664 -0.04516602 C16.31165855 -0.05594429 16.31165855 -0.05594429 17.67347717 -0.06694031 C34.84729218 -0.00559916 34.84729218 -0.00559916 40.47290039 5.18530273 C40.47290039 5.84530273 40.47290039 6.50530273 40.47290039 7.18530273 C41.13290039 7.18530273 41.79290039 7.18530273 42.47290039 7.18530273 C42.9227832 7.98709961 43.37266602 8.78889648 43.83618164 9.61499023 C50.2997044 21.03949338 56.97994463 32.35651153 64.17602539 43.33764648 C64.5956958 43.97895508 65.01536621 44.62026367 65.44775391 45.28100586 C66.23591522 46.47808437 67.03035243 47.67106256 67.83203125 48.85913086 C69.61559993 51.56018668 70.47290039 52.87105438 70.47290039 56.18530273 C71.13290039 56.18530273 71.79290039 56.18530273 72.47290039 56.18530273 C72.8712207 56.93295898 73.26954102 57.68061523 73.67993164 58.45092773 C74.20973633 59.43577148 74.73954102 60.42061523 75.28540039 61.43530273 C75.8074707 62.40983398 76.32954102 63.38436523 76.86743164 64.38842773 C78.37051043 67.16058166 78.37051043 67.16058166 80.17211914 69.35717773 C81.47290039 71.18530273 81.47290039 71.18530273 81.47290039 74.18530273 C82.13290039 74.18530273 82.79290039 74.18530273 83.47290039 74.18530273 C83.90445435 74.97602173 83.90445435 74.97602173 84.34472656 75.78271484 C87.68653732 81.85723133 91.20200958 87.8132199 94.78540039 93.74780273 C95.33518555 94.66110352 95.8849707 95.5744043 96.45141602 96.51538086 C97.79055236 98.73951166 99.13106584 100.96279913 100.47290039 103.18530273 C100.47654602 101.97896179 100.48019165 100.77262085 100.48394775 99.52972412 C100.52086339 88.16994407 100.57859849 76.81043595 100.65680313 65.45086288 C100.6963392 59.61054091 100.72849765 53.7703711 100.74389648 47.92993164 C100.7590226 42.29524188 100.79339631 36.66097028 100.84120941 31.02646637 C100.85606498 28.87509034 100.86394379 26.72365463 100.86478424 24.57222748 C100.86714306 21.56226332 100.89413557 18.55346505 100.92700195 15.54370117 C100.91945641 14.20474037 100.91945641 14.20474037 100.91175842 12.83872986 C101.0141535 6.7914165 101.0141535 6.7914165 103.38201904 3.66290283 C112.07289393 -2.47883141 127.05002245 0.03277192 137.27758789 0.05493164 C140.20212043 0.06026484 143.12649768 0.05497586 146.05102539 0.04858398 C154.38674713 0.04381021 162.72470465 0.07627091 171.05102539 0.50561523 C172.7511377 0.59093506 172.7511377 0.59093506 174.4855957 0.67797852 C178.76367105 1.40451011 181.4357442 3.14814654 184.47290039 6.18530273 C184.67765045 9.26985551 184.75525459 12.26536619 184.74705505 15.35163879 C184.75229173 16.31353817 184.75752841 17.27543755 184.76292378 18.26648539 C184.7780013 21.51005501 184.77863063 24.75346797 184.77929688 27.99707031 C184.78691319 30.31434905 184.79533976 32.63162525 184.80451965 34.94889832 C184.82652454 41.25883655 184.83527167 47.56872631 184.8403461 53.87869859 C184.84398282 57.8175777 184.85021931 61.75644398 184.85734749 65.69531822 C184.87681143 76.59762436 184.89331907 87.49991741 184.89622402 98.40224171 C184.89641159 99.10026991 184.89659916 99.79829811 184.89679242 100.51747869 C184.89715867 101.93260395 184.89752237 103.34772922 184.89788353 104.76285449 C184.89806634 105.46534103 184.89824915 106.16782756 184.8984375 106.89160156 C184.89870832 107.94661536 184.89870832 107.94661536 184.89898462 109.02294257 C184.90252636 120.42000855 184.92954687 131.8168856 184.96693539 143.21388606 C185.00500096 154.91074517 185.02394012 166.60750143 185.02468354 178.30442351 C185.0254781 184.87356402 185.03429892 191.44246095 185.0626812 198.01154518 C185.08877594 204.18970601 185.09111487 210.36741985 185.07502556 216.54561043 C185.07320418 218.81561504 185.07996341 221.08564484 185.09584427 223.35559464 C185.11617802 226.4502698 185.10582705 229.54336242 185.08763123 232.63801575 C185.10743118 233.99151877 185.10743118 233.99151877 185.12763113 235.3723653 C185.06739653 239.84503516 184.92545575 241.61465262 182.05687332 245.23179436 C177.94638132 248.33936583 174.86623603 248.31128362 169.80566406 248.33056641 C168.66735641 248.33694626 167.52904877 248.34332611 166.35624695 248.34989929 C164.51713493 248.35156853 164.51713493 248.35156853 162.64086914 248.35327148 C161.37576004 248.35659988 160.11065094 248.35992828 158.8072052 248.36335754 C156.12989791 248.36842123 153.45269213 248.37119856 150.77539062 248.37060547 C147.35929245 248.37050404 143.94340304 248.38414033 140.52735424 248.40137768 C137.25270054 248.41523119 133.97804815 248.41458808 130.70336914 248.41577148 C128.87336617 248.42654976 128.87336617 248.42654976 127.00639343 248.43754578 C117.77079345 248.41278937 111.20068346 247.9130858 104.47290039 241.18530273 C103.59790039 238.87280273 103.59790039 238.87280273 103.47290039 237.18530273 C102.81290039 237.18530273 102.15290039 237.18530273 101.47290039 237.18530273 C100.41430062 235.55522779 99.42890133 233.87759112 98.47290039 232.18530273 C97.00555803 229.9168811 95.53019655 227.65558571 94.04321289 225.40014648 C93.61593399 224.75027267 93.18865509 224.10039886 92.74842834 223.43083191 C91.83644703 222.04382272 90.92406759 220.65707523 90.01132202 219.27056885 C88.58996386 217.11074277 87.17040974 214.94974225 85.75146484 212.78833008 C80.4891106 204.77098157 80.4891106 204.77098157 75.21557617 196.76098633 C73.36006905 193.94655384 71.50958903 191.12888865 69.66040039 188.31030273 C69.12237793 187.49811279 68.58435547 186.68592285 68.0300293 185.84912109 C67.55098145 185.11701416 67.07193359 184.38490723 66.57836914 183.63061523 C66.1673999 183.00687012 65.75643066 182.383125 65.33300781 181.74047852 C64.47290039 180.18530273 64.47290039 180.18530273 64.47290039 178.18530273 C63.81290039 178.18530273 63.15290039 178.18530273 62.47290039 178.18530273 C60.99243164 176.16577148 60.99243164 176.16577148 59.28540039 173.37280273 C58.36307617 171.88200195 58.36307617 171.88200195 57.42211914 170.36108398 C56.77887695 169.31307617 56.13563477 168.26506836 55.47290039 167.18530273 C54.18538174 165.1410177 52.89392614 163.09920509 51.59790039 161.06030273 C51.02297852 160.15022461 50.44805664 159.24014648 49.85571289 158.30249023 C48.64202843 156.28598082 48.64202843 156.28598082 47.47290039 155.18530273 C47.46925476 156.23686554 47.46560913 157.28842834 47.46185303 158.37185669 C47.4248886 168.28885359 47.36710001 178.20554038 47.28899765 188.1223011 C47.24951283 193.22046305 47.21732922 198.31845202 47.2019043 203.41674805 C47.18674441 208.3382507 47.15231055 213.25927781 47.10459137 218.1805687 C47.08977071 220.05676003 47.08185898 221.93301927 47.08101654 223.80926895 C47.07864718 226.44049848 47.05157083 229.0704135 47.01879883 231.70141602 C47.02634438 232.86127769 47.02634438 232.86127769 47.03404236 234.04457092 C46.93455606 239.21775023 45.95054655 242.33049523 42.47290039 246.18530273 C38.2789839 248.19230296 34.51148079 248.43758305 29.90429688 248.4440918 C28.61953964 248.45039612 27.33478241 248.45670044 26.01109314 248.4631958 C24.62205873 248.45961606 23.23302559 248.45551411 21.84399414 248.45092773 C20.40723098 248.45227647 18.97046827 248.45421874 17.53370667 248.45672607 C14.53040194 248.4596666 11.52721658 248.4554137 8.52392578 248.44604492 C4.68169645 248.43464063 0.83974627 248.44122269 -3.00247288 248.45318985 C-5.96650788 248.4604287 -8.93047706 248.45811142 -11.89451408 248.45293427 C-13.31104503 248.4516039 -14.72758203 248.45322393 -16.14410591 248.45789337 C-18.12536626 248.4629928 -20.10664768 248.45383769 -22.08789062 248.4440918 C-23.21340836 248.44250061 -24.33892609 248.44090942 -25.49855042 248.43927002 C-29.93891768 248.06691086 -32.47255469 247.24579157 -35.64138508 244.05910015 C-38.02314615 240.42933611 -38.03374834 238.23157682 -38.04608154 233.90821838 C-38.05358279 233.18502865 -38.06108405 232.46183892 -38.06881261 231.71673435 C-38.08908567 229.29654059 -38.08098667 226.87728438 -38.07299805 224.45703125 C-38.08173681 222.71813534 -38.09222366 220.97924747 -38.10432434 219.2403717 C-38.13226586 214.50626165 -38.13558602 209.77241264 -38.13460445 205.03823209 C-38.13774821 200.03885255 -38.16342587 195.03958759 -38.18658447 190.04026794 C-38.22724905 180.51875892 -38.2474906 170.99731808 -38.26055837 161.4757356 C-38.2761691 150.82732051 -38.31468107 140.17903144 -38.35515165 129.5306865 C-38.40422667 116.46128474 -38.44773788 103.39186442 -38.47723389 90.32240295 C-38.4793257 89.39750511 -38.48141752 88.47260728 -38.48357272 87.51968223 C-38.49320929 82.94775711 -38.49986816 78.37585323 -38.50130844 73.80391788 C-38.50518804 65.09002205 -38.52749482 56.37733783 -38.60833907 47.6637643 C-38.64604899 43.41505796 -38.67218873 39.16631755 -38.69698572 34.9175185 C-38.71183223 32.88482225 -38.73203405 30.85215715 -38.75792837 28.81957161 C-38.793358 26.00116365 -38.81005967 23.18319769 -38.82281494 20.36460876 C-38.8380497 19.53616656 -38.85328446 18.70772435 -38.86898088 17.85417783 C-38.86881516 11.87047553 -38.04644292 6.71835054 -33.64208984 2.29003906 C-24.71081784 -2.37508916 -9.92178128 -0.00080384 0 0 Z " fill="#23262D" transform="translate(185.527099609375,122.814697265625)"/>
<path d="M0 0 C1.5071759 -0.00143509 1.5071759 -0.00143509 3.0447998 -0.00289917 C5.15909895 -0.00357502 7.27340024 -0.00176261 9.38769531 0.00244141 C12.55799244 0.0077526 15.72814496 0.00249938 18.8984375 -0.00390625 C28.53940253 -0.00898837 38.17844636 0.06691954 47.8125 0.453125 C48.96739929 0.48610184 48.96739929 0.48610184 50.14562988 0.51974487 C54.5608575 0.73540266 57.66869732 1.25611742 61.09375 4.1328125 C63.62819065 8.7449821 63.37651712 13.30816103 63.35444641 18.42539978 C63.36018473 19.83428344 63.36018473 19.83428344 63.36603898 21.27162939 C63.3763623 24.42064505 63.37237807 27.56947816 63.3684082 30.71850586 C63.37275503 32.97549102 63.37793807 35.2324747 63.38389587 37.48945618 C63.39729988 43.62161539 63.397863 49.75371303 63.39533257 55.88588405 C63.39426387 61.00286531 63.39914362 66.11983406 63.403938 71.23681265 C63.41567277 83.99724074 63.41480531 96.75762421 63.40838119 109.51805187 C63.40321168 120.59734205 63.4144685 131.67654432 63.43347941 142.75581711 C63.45285549 154.13524014 63.46082277 165.51460945 63.45735615 176.89405352 C63.45554134 183.28146563 63.45819939 189.66879721 63.47207069 196.05619621 C63.48462493 202.06195759 63.48272762 208.06754271 63.46965981 214.07330132 C63.46728929 216.27837686 63.47004565 218.48346472 63.47828293 220.68852615 C63.48871161 223.6969704 63.48068066 226.70481896 63.4679718 229.71324158 C63.47534609 230.58727204 63.48272037 231.4613025 63.49031812 232.36181873 C63.43715443 238.33762592 62.48535033 242.74121217 58.09375 247.1328125 C54.05710096 248.27269336 50.11129549 248.27140204 45.93603516 248.29394531 C45.23453842 248.29891022 44.53304169 248.30387512 43.81028748 248.30899048 C41.50111899 248.32353588 39.19201917 248.33040075 36.8828125 248.3359375 C35.27005005 248.34169454 33.6572876 248.3474522 32.04452515 248.35321045 C28.66705 248.36369827 25.2895985 248.36955566 21.91210938 248.37304688 C17.59582252 248.37853174 13.27985107 248.40256885 8.9636631 248.43101883 C5.6332611 248.44968986 2.30293449 248.45485314 -1.02751541 248.45638275 C-2.61824902 248.45939893 -4.20898164 248.46739237 -5.79966354 248.48056793 C-8.02993209 248.49772517 -10.25943737 248.49572529 -12.48974609 248.48925781 C-14.38906387 248.49472626 -14.38906387 248.49472626 -16.32675171 248.50030518 C-20.51048268 248.07077836 -23.28137219 247.28619778 -26.90625 245.1328125 C-29.97815097 239.58729805 -30.33573085 234.93139335 -30.28720093 228.67564392 C-30.2918809 227.7428464 -30.29656087 226.81004889 -30.30138266 225.84898478 C-30.31331691 222.73373117 -30.30388146 219.61891873 -30.29443359 216.50366211 C-30.29849995 214.26608524 -30.3038422 212.02851039 -30.31036377 209.79093933 C-30.3240346 203.72084651 -30.31873979 197.65090674 -30.30922651 191.58081126 C-30.30162972 185.22815079 -30.3086755 178.8755034 -30.31338501 172.52284241 C-30.31919159 161.17277674 -30.30987135 149.82278876 -30.294607 138.47273863 C-30.28120111 128.186137 -30.28353534 117.89963692 -30.29736328 107.61303711 C-30.31342471 95.65939733 -30.31939046 83.70581922 -30.31052649 71.7521649 C-30.30584851 65.42738727 -30.30522871 59.10267956 -30.31513596 52.77790642 C-30.32379807 46.83284473 -30.31779732 40.88797498 -30.30045319 34.94293404 C-30.29648452 32.76043644 -30.29762886 30.57792271 -30.30424118 28.39543152 C-30.31243141 25.41773498 -30.30216526 22.44065465 -30.28720093 19.46299744 C-30.29389309 18.59811311 -30.30058526 17.73322879 -30.30748022 16.84213585 C-30.25887615 11.86045916 -29.64508249 8.46061872 -26.90625 4.1328125 C-20.48144937 -1.68966307 -8.17709541 -0.01773027 0 0 Z " fill="#22252C" transform="translate(47.90625,122.8671875)"/>
<path d="M0 0 C1.89248978 -0.01441132 1.89248978 -0.01441132 3.82321167 -0.02911377 C5.19740619 -0.03396185 6.57160283 -0.03824066 7.94580078 -0.04199219 C9.36060588 -0.04774846 10.77541098 -0.05350613 12.19021606 -0.05926514 C15.15415814 -0.0697568 18.11807323 -0.07561158 21.08203125 -0.07910156 C24.87047234 -0.08458529 28.65855386 -0.10861807 32.44688225 -0.13707352 C35.36891711 -0.15574266 38.29086602 -0.16090774 41.21295547 -0.16243744 C42.60914197 -0.1654544 44.0053273 -0.17345052 45.40145493 -0.18662262 C47.35870946 -0.20377225 49.31611331 -0.19994522 51.2734375 -0.1953125 C52.38500214 -0.19895813 53.49656677 -0.20260376 54.64181519 -0.20635986 C58.27716745 0.22124509 60.65392214 1.25525061 63.76611328 3.16113281 C66.18564854 6.7904357 66.0348597 8.52467717 66.07250977 12.84814453 C66.08083328 13.52330109 66.0891568 14.19845764 66.09773254 14.89407349 C66.12183085 17.12638107 66.13060433 19.35839644 66.13720703 21.59082031 C66.14617368 23.14397265 66.15529553 24.6971241 66.16456604 26.25027466 C66.18105822 29.50687763 66.18875652 32.76337778 66.19165039 36.02001953 C66.19703387 40.18886477 66.23471006 44.35674084 66.28039455 48.52531242 C66.31016841 51.73385122 66.317374 54.94215676 66.31837654 58.15082169 C66.32257844 59.68741417 66.33501174 61.22400738 66.35589409 62.76046371 C66.38281777 64.91280674 66.37798315 67.0629054 66.36547852 69.21533203 C66.37054916 70.43872284 66.37561981 71.66211365 66.38084412 72.9225769 C65.58721908 77.10359224 64.07595519 78.56407366 60.76611328 81.16113281 C57.51574375 82.51279962 54.13100931 82.30038028 50.63989258 82.32226562 C49.40148117 82.33187317 48.16306976 82.34148071 46.88713074 82.35137939 C45.53819972 82.35622805 44.18926655 82.36050671 42.84033203 82.36425781 C41.45034281 82.37001486 40.06035359 82.37577252 38.67036438 82.38153076 C35.75769686 82.392023 32.84505679 82.39787715 29.93237305 82.40136719 C26.21352937 82.40684562 22.49505297 82.43086683 18.77632427 82.45933914 C15.90486109 82.47803143 13.03348519 82.48317462 10.16196632 82.48470306 C8.79172574 82.48771571 7.42148617 82.49569703 6.05130577 82.50888824 C-7.75516614 82.63231219 -7.75516614 82.63231219 -13.23388672 79.16113281 C-15.55870943 75.73782506 -15.50367509 72.62361089 -15.5402832 68.56005859 C-15.54860672 67.90586945 -15.55693024 67.2516803 -15.56550598 66.57766724 C-15.58955068 64.42053226 -15.59837101 62.26369998 -15.60498047 60.10644531 C-15.61395093 58.60195833 -15.62307285 57.09747225 -15.63233948 55.59298706 C-15.6488169 52.44071284 -15.65652731 49.28854467 -15.65942383 46.13623047 C-15.66480696 42.10538168 -15.70248785 38.07553537 -15.74816799 34.04496956 C-15.77797348 30.93761594 -15.78514812 27.83050276 -15.78614998 24.72301865 C-15.7903453 23.23749067 -15.80275215 21.75196152 -15.82366753 20.26657486 C-15.99292194 7.20708826 -15.99292194 7.20708826 -12.94897461 3.26611328 C-8.71224727 -0.01857902 -5.28137115 0.03248836 0 0 Z " fill="#C7CCD8" transform="translate(418.23388671875,288.8388671875)"/>
<path d="M0 0 C3 1 3 1 4.17162704 2.98045158 C5.31021195 7.13077087 5.27573473 11.02749944 5.25396729 15.31277466 C5.25708727 16.25414713 5.26020725 17.1955196 5.26342177 18.16541851 C5.27140247 21.32144285 5.26507782 24.47727498 5.25878906 27.63330078 C5.26149885 29.89515292 5.26505972 32.15700418 5.26940918 34.41885376 C5.27853581 40.56321322 5.27498804 46.7075056 5.26865101 52.85186625 C5.2635937 59.27534067 5.2682816 65.69880929 5.27142334 72.12228394 C5.27529649 83.59901011 5.26907567 95.07569905 5.25890467 106.55241893 C5.24996497 116.96220718 5.25152489 127.37195083 5.26074219 137.78173828 C5.27143977 149.86900343 5.27543248 161.95623489 5.26951766 174.0435065 C5.26639467 180.44253986 5.26599775 186.84154248 5.27259064 193.24057388 C5.2783531 199.25368444 5.2743874 205.26671047 5.26280212 211.27981186 C5.26014988 213.49098317 5.2609302 215.70216155 5.26532745 217.91333008 C5.27076193 220.92271477 5.26397437 223.93182556 5.25396729 226.94119263 C5.25842873 227.82396161 5.26289017 228.7067306 5.26748681 229.61625016 C5.22830075 235.65754888 5.22830075 235.65754888 3 239 C2.67 162.11 2.34 85.22 2 6 C1.34 5.67 0.68 5.34 0 5 C0 3.35 0 1.7 0 0 Z " fill="#B6B7B8" transform="translate(106,126)"/>
<path d="M0 0 C0.33 0 0.66 0 1 0 C1 77.22 1 154.44 1 234 C2.32 234.66 3.64 235.32 5 236 C5 236.99 5 237.98 5 239 C3.125 238.375 3.125 238.375 1 237 C-1.28622626 231.88247068 -1.27978213 227.13239438 -1.24723816 221.64289856 C-1.24965257 220.70883877 -1.25206699 219.77477898 -1.25455457 218.81241435 C-1.26018378 215.68712732 -1.2515343 212.56204538 -1.24291992 209.43676758 C-1.24399298 207.1944727 -1.245932 204.9521781 -1.24867249 202.70988464 C-1.2535194 196.62342837 -1.24586758 190.53704541 -1.23571944 184.450598 C-1.22693891 178.08585585 -1.22869637 171.72111599 -1.2290802 165.35636902 C-1.22814372 154.67091494 -1.2195149 143.98549196 -1.20581055 133.30004883 C-1.19171381 122.30297328 -1.18464023 111.3059226 -1.18530273 100.30883789 C-1.18534269 99.63107545 -1.18538265 98.95331301 -1.18542381 98.25501231 C-1.18546417 97.57842539 -1.18550452 96.90183848 -1.1855461 96.20474893 C-1.18620069 84.31932824 -1.18105669 72.43391628 -1.17275429 60.54849815 C-1.16921812 55.4851543 -1.16739057 50.42181404 -1.16686058 45.35846901 C-1.16585834 39.40199833 -1.1597715 33.4455539 -1.14969444 27.48909187 C-1.1467662 25.29888316 -1.14554473 23.10867144 -1.14612198 20.91846085 C-1.14661044 17.93766256 -1.14097906 14.95693849 -1.13371277 11.97615051 C-1.13526137 11.10184554 -1.13680997 10.22754058 -1.1384055 9.32674152 C-1.12480602 5.96746203 -1.069738 3.20921399 0 0 Z " fill="#BABABB" transform="translate(19,130)"/>
<path d="M0 0 C0.66 0 1.32 0 2 0 C3.16114397 4.14695971 3.10613097 8.1328316 3.0534668 12.40869141 C3.04707184 13.25462357 3.04067688 14.10055573 3.03408813 14.97212219 C3.01132444 17.7653496 2.98071097 20.55842074 2.94921875 23.3515625 C2.92998779 25.2916141 2.91093194 27.23166744 2.89204407 29.17172241 C2.85107879 33.23529892 2.80585211 37.29880305 2.75805664 41.36230469 C2.69734321 46.57907584 2.65049509 51.79587051 2.60722637 57.01281166 C2.57193967 61.01734808 2.52769426 65.02174833 2.48087502 69.02616501 C2.4597829 70.9503294 2.44189462 72.8745316 2.4272213 74.79875565 C2.40573927 77.48274093 2.37183751 80.1662895 2.3347168 82.85009766 C2.33098557 83.65013718 2.32725433 84.4501767 2.32341003 85.27445984 C2.22833139 90.77166861 2.22833139 90.77166861 0 93 C0 62.31 0 31.62 0 0 Z " fill="#99999B" transform="translate(230,272)"/>
<path d="M0 0 C2.92453254 0.0053332 5.84890979 0.00004422 8.7734375 -0.00634766 C19.29200682 -0.00969283 29.71205207 0.23116216 40.1953125 1.13037109 C40.1953125 1.46037109 40.1953125 1.79037109 40.1953125 2.13037109 C39.36116821 2.13179611 38.52702393 2.13322113 37.66760254 2.13468933 C29.78196402 2.15256611 21.89688337 2.19431757 14.01151276 2.26246166 C9.95812169 2.29665977 5.90510463 2.32183035 1.8515625 2.32592773 C-2.06509142 2.33022628 -5.98090268 2.35881589 -9.89729309 2.40380287 C-11.38665344 2.41672856 -12.87611489 2.42110308 -14.36552429 2.41652489 C-22.80540139 2.39663607 -29.03049764 2.62442605 -35.8046875 8.13037109 C-34.32906822 3.45757672 -34.32906822 3.45757672 -32.00097656 2.00488281 C-22.57769447 -1.74725108 -10.00006628 -0.02166681 0 0 Z " fill="#AEAFB2" transform="translate(322.8046875,122.86962890625)"/>
<path d="M0 0 C3 1 3 1 4 3 C4.09072287 4.7566923 4.11754144 6.5168501 4.11352539 8.27587891 C4.11344986 9.3768692 4.11337433 10.4778595 4.11329651 11.61221313 C4.10813522 12.80494843 4.10297394 13.99768372 4.09765625 15.2265625 C4.0962413 16.44451508 4.09482635 17.66246765 4.09336853 18.91732788 C4.08775639 22.8199099 4.07520179 26.72243523 4.0625 30.625 C4.05748657 33.26562417 4.05292339 35.90624924 4.04882812 38.546875 C4.03778301 45.03126945 4.02103302 51.51563068 4 58 C3.67 58 3.34 58 3 58 C2.67 40.84 2.34 23.68 2 6 C1.34 5.67 0.68 5.34 0 5 C0 3.35 0 1.7 0 0 Z " fill="#585A5C" transform="translate(106,126)"/>
<path d="M0 0 C0.33 0 0.66 0 1 0 C1 11.22 1 22.44 1 34 C2.32 34.66 3.64 35.32 5 36 C5 36.99 5 37.98 5 39 C1.125 37.25 1.125 37.25 0 35 C-0.08667255 32.37372867 -0.11560135 29.77437517 -0.09765625 27.1484375 C-0.0962413 26.37440582 -0.09482635 25.60037415 -0.09336853 24.80288696 C-0.08776403 22.32688558 -0.07521083 19.85097412 -0.0625 17.375 C-0.05748558 15.69791797 -0.05292257 14.02083453 -0.04882812 12.34375 C-0.03779315 8.22913194 -0.02052554 4.11458122 0 0 Z " fill="#696B6D" transform="translate(19,330)"/>
<path d="M0 0 C3 1 3 1 4 3 C4.07116382 5.37402501 4.08409085 7.75000677 4.0625 10.125 C4.05347656 11.40632812 4.04445313 12.68765625 4.03515625 14.0078125 C4.02355469 14.99523437 4.01195313 15.98265625 4 17 C3.67 17 3.34 17 3 17 C2.92652344 15.82630859 2.92652344 15.82630859 2.8515625 14.62890625 C2.77679688 13.61699219 2.70203125 12.60507813 2.625 11.5625 C2.55539063 10.55316406 2.48578125 9.54382813 2.4140625 8.50390625 C2.27742188 7.67761719 2.14078125 6.85132813 2 6 C1.34 5.67 0.68 5.34 0 5 C0 3.35 0 1.7 0 0 Z " fill="#6D6F71" transform="translate(106,126)"/>
<path d="M0 0 C0.33 0 0.66 0 1 0 C1 2.97 1 5.94 1 9 C2.32 9.66 3.64 10.32 5 11 C5 11.99 5 12.98 5 14 C1.125 12.25 1.125 12.25 0 10 C-0.06996014 8.29297265 -0.08440154 6.58331997 -0.0625 4.875 C-0.05347656 3.96492188 -0.04445313 3.05484375 -0.03515625 2.1171875 C-0.02355469 1.41851562 -0.01195313 0.71984375 0 0 Z " fill="#85868A" transform="translate(19,355)"/>
<path d="M0 0 C-1.28965176 1.37562854 -2.62689293 2.70766393 -4 4 C-4.66 4 -5.32 4 -6 4 C-6 2.68 -6 1.36 -6 0 C-3.50907189 -1.24546405 -2.58919267 -0.7767578 0 0 Z " fill="#67696E" transform="translate(369,366)"/>
<path d="M0 0 C0.66 0 1.32 0 2 0 C2 0.66 2 1.32 2 2 C3.32 1.67 4.64 1.34 6 1 C6.33 1.66 6.66 2.32 7 3 C6.34 3 5.68 3 5 3 C5.33 4.65 5.66 6.3 6 8 C4.5 6.625 4.5 6.625 3 5 C3 4.34 3 3.68 3 3 C2.34 3 1.68 3 1 3 C0.67 2.01 0.34 1.02 0 0 Z " fill="#77787B" transform="translate(247,298)"/>
<path d="M0 0 C2.79872437 2.52788007 4.45773019 4.20411134 5 8 C4.01 8 3.02 8 2 8 C1.67 7.01 1.34 6.02 1 5 C0.01 5.495 0.01 5.495 -1 6 C-0.67 4.02 -0.34 2.04 0 0 Z " fill="#717276" transform="translate(230,136)"/>
<path d="M0 0 C-2.64 1.65 -5.28 3.3 -8 5 C-5.69411765 -1.42352941 -5.69411765 -1.42352941 0 0 Z " fill="#717377" transform="translate(295,126)"/>
</svg>
